<svg xmlns="http://www.w3.org/2000/svg" viewBox="0 0 620 100">
	<defs>
		<style>
			:root {
				--brown: #b9663a;
			}
		</style>
		<path id="path_part_1" fill="none" stroke="var(--brown)" stroke-width="3" d="M 15 15 l 0 -45 a 12 12 0 0 1 12 -12 l 22 0 a 27 27 0 0 1 27 27 l 0 3 a 27 27 0 0 1 -27 27 l -19 0"/>
		<path id="path_part_2" fill="none" stroke="var(--brown)" stroke-width="3" d="M -15 -15 l 0 -34 a 27 27 0 0 1 27 -27 l 3 0 a 27 27 0 0 1 27 27 l 0 22 a 12 12 0 0 1 -12 12 l -1 0"/>
	</defs>
	<g transform="translate(310 50) scale(1.3 1.3) ">
		<!-- promenade logo -->
		<g transform="rotate(45) scale(0.5 0.5)">
			<use href="#path_part_1" transform="rotate(270)"/>
			<use href="#path_part_1" transform="rotate(180)"/>
			<use href="#path_part_1" transform="rotate(90)"/>
			<use href="#path_part_1" />
			<use href="#path_part_2" />
			<use href="#path_part_2" transform="rotate(90)"/>
			<use href="#path_part_2" transform="rotate(180)"/>
			<use href="#path_part_2" transform="rotate(270)"/>
		</g>
		<!-- ornament -->
		<g id="ornament">
			<path transform="translate(150 -10)" fill="var(--brown)" d="m -30.76 38.49 c 0.06 -0 0.19 -0.04 0.25 -0.04 c 4.41 0.13 12.42 -1.19 20.34 -3.37 c 8.34 -2.29 16.36 -6.05 25.41 -8.94 c 4.09 1.93 8.25 3.76 12.41 5.25 c 7.24 2.59 14.25 4.28 19.75 4.28 c 1.36 -0 2.7 -0.08 4 -0.25 c 1.3 -0.16 2.57 -0.4 3.78 -0.72 c 2.41 -0.62 4.6 -1.51 6.47 -2.62 c 3.32 -1.98 5.53 -4.66 6 -7.69 c 1.89 -0.06 3.7 -0.16 5.22 -0.34 c 3.59 -0.43 6.19 -1.15 8.06 -2.1 c 0.93 -0.47 1.7 -0.99 2.31 -1.56 c 2.46 -2.25 2.38 -5.09 2.38 -6.84 c -0 -1.18 -0.59 -2.49 -1.66 -3.94 s -2.67 -2.99 -4.84 -4.41 c -1.09 -0.7 -2.31 -1.38 -3.69 -2 c -2.76 -1.23 -6.13 -2.22 -10.13 -2.75 c -2 -0.26 -4.17 -0.4 -6.5 -0.4 c -2.18 0 -4.61 0.23 -7.15 0.56 c -8.33 1.08 -18.11 3.69 -27.03 6.47 c -1.51 0.47 -2.6 0.87 -4.04 1.34 c -1.22 -0.55 -2.47 -1.07 -3.68 -1.62 c -5.8 -2.65 -11.43 -5.23 -16.69 -7.44 l -0.63 1.47 c 5.22 2.19 10.86 4.79 16.66 7.44 c 0.69 0.31 1.4 0.62 2.09 0.93 c -8.62 2.89 -16.06 5.6 -18.34 6.41 c -0.23 0.08 -1.2 0.43 -1.5 0.53 c -4.75 -2.14 -9.74 -4.23 -14.72 -5.97 c -4.1 -1.43 -8.04 -2.64 -11.53 -3.53 s -6.53 -1.46 -8.78 -1.56 c -4.49 -0.2 -10.11 1.16 -14.63 3.62 c -1.12 0.62 -2.17 1.31 -3.12 2.07 c -0.95 0.75 -1.8 1.57 -2.5 2.47 c -1.41 1.79 -2.25 3.9 -2.09 6.18 c 0.29 4.37 2.63 7.34 5.96 9.1 c 2.18 1.14 4.86 1.7 7.66 2.06 c 0.64 2.78 2.09 4.74 4.22 5.91 c 1.5 0.82 3.34 1.26 5.37 1.56 c 1.6 0.31 3.17 0.42 4.6 0.4 c 0.1 -0 0.21 0.04 0.31 0.04 z m -0 -1.6 h -0.03 c -1.76 -0.07 -3.28 -0.25 -4.72 -0.47 c -1.3 -0.26 -2.6 -0.61 -3.75 -1.18 c -1.95 -0.98 -3.49 -2.38 -4.25 -4.5 c 0.95 0.07 1.84 0.26 2.81 0.28 c 14.76 -1.51 28.78 -6.1 43.1 -11.22 c 1.31 0.65 2.85 1.29 4.03 1.94 c 0.98 0.54 2.1 1.03 3.12 1.56 c -0.24 0.1 -0.78 0.28 -1 0.37 c -3.63 1.59 -11.34 4.86 -19.22 7.75 c -7.86 2.89 -15.97 5.38 -20.09 5.47 z m 78.16 -2.81 c -1.29 0 -2.68 -0.09 -4.16 -0.28 c -1.48 -0.2 -3.03 -0.51 -4.66 -0.88 c -6.61 -1.49 -14.23 -4.31 -21.46 -7.62 c 4.35 -2.03 8.22 -3.93 13.75 -6.19 c 1.95 -0.8 3.67 -1.34 5.56 -2.06 c 2.08 0.83 4.17 1.67 6.22 2.4 c 5.77 2.07 11.36 3.67 16.56 4.47 c 2.37 0.37 4.63 0.51 6.81 0.5 c -0.33 1.64 -1.27 3.24 -2.9 4.66 c -0.67 0.58 -1.46 1.11 -2.32 1.62 c -1.71 1.02 -3.75 1.89 -6.03 2.47 c -2.27 0.59 -4.77 0.91 -7.37 0.91 z m -86.1 -6.91 c -0.29 0.02 -0.58 0.01 -0.84 0 c -1.51 -0.03 -2.95 -0.11 -4.41 -0.18 c 0.03 -0.38 -0 -0.76 0.07 -1.13 c 0.3 -1.72 1 -3.41 2 -4.94 c 0.49 -0.76 1.09 -1.48 1.71 -2.15 c 1.26 -1.35 2.73 -2.49 4.32 -3.28 c 0.79 -0.4 1.61 -0.72 2.43 -0.94 c 0.83 -0.22 1.65 -0.35 2.47 -0.38 c 1.71 -0.04 3.18 0.16 4.41 0.5 c 1.18 0.33 2.15 0.79 2.91 1.32 c -1.45 0.26 -2.57 1.51 -2.57 3.03 c 0 1.71 1.42 3.09 3.13 3.09 c 0.16 -0 0.29 -0.01 0.44 -0.03 c 0.28 0.02 0.59 0.01 0.9 -0.03 c 0.89 -0.27 1.74 -1.18 1.85 -2.63 c 0.06 -0.8 -0.16 -1.63 -0.63 -2.43 c -0.47 -0.81 -1.19 -1.59 -2.12 -2.25 c -0.94 -0.67 -2.11 -1.24 -3.5 -1.63 c -1.4 -0.38 -3 -0.58 -4.85 -0.53 c -0.95 0.02 -1.91 0.16 -2.84 0.41 c -0.94 0.25 -1.87 0.61 -2.75 1.06 c -0.88 0.44 -1.73 0.98 -2.53 1.59 s -1.56 1.29 -2.25 2.03 s -1.33 1.53 -1.88 2.38 s -1.03 1.76 -1.4 2.69 c -0.38 0.92 -0.65 1.89 -0.82 2.87 c -0.07 0.43 -0.03 0.87 -0.06 1.31 c -2.29 -0.16 -4.47 -0.43 -6.25 -1 c -1.63 -0.52 -2.94 -1.27 -3.87 -2.31 c -0.94 -1.04 -1.53 -2.4 -1.66 -4.31 c -0.06 -0.92 0.08 -1.78 0.37 -2.63 c 0.3 -0.84 0.77 -1.65 1.38 -2.43 s 1.38 -1.53 2.25 -2.22 s 1.85 -1.33 2.91 -1.91 c 2.11 -1.15 4.53 -2.07 6.93 -2.66 c 2.4 -0.58 4.79 -0.83 6.85 -0.75 c 2.04 0.09 4.97 0.63 8.4 1.5 c 3.44 0.88 7.38 2.08 11.44 3.5 c 4.4 1.54 8.89 3.32 13.16 5.19 c -3.72 1.37 -8.56 3.2 -15.1 5.35 c -7.58 2.49 -15.58 4.74 -20 4.93 z m 104.85 -4.34 c -6.68 0.04 -14.56 -1.93 -22.94 -4.91 c -1.49 -0.53 -3.02 -1.16 -4.53 -1.75 c 1.41 -0.51 3.02 -1.17 4.31 -1.59 c 1.48 -0.48 2.77 -0.85 4 -1.16 c 1.49 -0.26 3.48 -0.75 4.34 -0.75 c 3.56 -0 7.37 1.27 10.22 3.25 c 2.69 1.87 4.4 4.35 4.6 6.91 z m 1.62 -0.03 c -0.1 -1.53 -0.57 -2.99 -1.44 -4.31 c -0.95 -1.47 -2.3 -2.79 -3.87 -3.88 s -3.38 -1.98 -5.28 -2.59 s -3.88 -0.94 -5.85 -0.94 c -2.03 0 -5.18 0.6 -8.96 1.53 c -2.26 0.56 -4.92 1.38 -7.47 2.13 c -0.14 -0.06 -0.27 -0.1 -0.41 -0.16 c -2.96 -1.22 -5.9 -2.62 -8.87 -3.94 c 2.04 -0.9 2.82 -1.3 5.09 -2.22 c 8.87 -3.56 19.12 -6.78 28.09 -6.78 c 2.26 -0 4.36 0.16 6.28 0.41 c 1.93 0.25 3.71 0.61 5.32 1.06 c 3.22 0.9 5.81 2.12 7.84 3.44 c 1.02 0.66 1.89 1.32 2.63 2 c 0.73 0.68 1.34 1.36 1.81 2 c 0.94 1.27 1.34 2.4 1.34 3 c 0 0.9 0.03 1.88 -0.19 2.84 c -0.21 0.96 -0.69 1.91 -1.68 2.81 c -0.5 0.46 -1.14 0.9 -1.97 1.32 c -1.66 0.82 -4.05 1.52 -7.5 1.93 c -1.41 0.17 -3.13 0.28 -4.91 0.35 z m -56.19 -0.28 c -1.45 -0.74 -3 -1.44 -4.37 -2.19 c -0.76 -0.42 -1.78 -0.83 -2.59 -1.25 c 6.35 -2.58 12.24 -5.01 19 -7.56 c 2.95 1.32 5.88 2.67 8.84 3.9 c -0.92 0.28 -1.73 0.46 -2.66 0.75 c -7.26 2.27 -13.82 4.62 -18.22 6.35 z"/>
		</g>
		<use href="#ornament" transform="scale(-1 1)" />
	</g>
	
	
</svg>